<?xml version="1.0" encoding="UTF-8" standalone="no"?>
<svg
   xmlns:dc="http://purl.org/dc/elements/1.1/"
   xmlns:cc="http://creativecommons.org/ns#"
   xmlns:rdf="http://www.w3.org/1999/02/22-rdf-syntax-ns#"
   xmlns:svg="http://www.w3.org/2000/svg"
   xmlns="http://www.w3.org/2000/svg"
   xmlns:sodipodi="http://sodipodi.sourceforge.net/DTD/sodipodi-0.dtd"
   xmlns:inkscape="http://www.inkscape.org/namespaces/inkscape"
   xml:space="preserve"
   enable-background="new 0 0 576 576"
   viewBox="0 0 576 576"
   height="576px"
   width="576px"
   y="0px"
   x="0px"
   sodipodi:docname="ISMIR2021_LOGO.svg"
   inkscape:version="1.0 (4035a4fb49, 2020-05-01)"
   id="For_Vector_xA0_Image_1_"
   version="1.1"><metadata
   id="metadata350"><rdf:RDF><cc:Work
       rdf:about=""><dc:format>image/svg+xml</dc:format><dc:type
         rdf:resource="http://purl.org/dc/dcmitype/StillImage" /></cc:Work></rdf:RDF></metadata><defs
   id="defs348"><inkscape:path-effect
     lpeversion="1"
     is_visible="true"
     id="path-effect1185"
     effect="spiro" /><inkscape:path-effect
     lpeversion="1"
     is_visible="true"
     id="path-effect1181"
     effect="spiro" /></defs>
<g
   style="stroke-width:1.0288"
   transform="matrix(1.323561,0,0,1.3145885,-58.591435,-315.77634)"
   id="g588_1_">
	
	
	
	
	
	
	
	
	
	
	
	
	
	
	
	
	
	
	
	
	
	
	
	
	
	
	
	
	
	
	
	
	
	
	
	
	
	
	
	
	
	
	
	
	
	
	
	
	
	
	
	
	
	
	
	
	
	
	
	
	
	
	
	
	
	
	
	
	
	
	
	
	
	
	
	
	
	
	
	
	
	
	
	
	
	
	
	
	
	
	
	
	
	
	
	<g
   style="stroke-width:1.0288"
   transform="translate(0,221.06613)"
   id="g1296"><path
     style="stroke-width:1.05843"
     id="path404_1_"
     sodipodi:nodetypes="ccccc"
     fill="#60b99b"
     d="m 251.979,254.075 c -25.323,-52.102 -53.174,-109.692 -78.62,-162.044 3.066,-1.418 5.912,-2.735 9.03,-4.178 22.615,53.676 47.595,112.502 70.109,165.936 -0.187,0.085 -0.341,0.201 -0.519,0.286 z" /><path
     style="stroke-width:1.05843"
     id="path406_1_"
     sodipodi:nodetypes="ccccc"
     fill="#9fd09f"
     d="m 267.405,253.166 c 19.797,-47.011 41.729,-98.811 61.674,-146.18 2.722,1.216 5.247,2.342 8.101,3.615 -22.404,46.111 -46.981,96.808 -69.315,142.778 -0.189,-0.092 -0.269,-0.12 -0.46,-0.213 z" /><path
     style="stroke-width:1.05843"
     id="path408_1_"
     sodipodi:nodetypes="ccccc"
     fill="#b4d8a1"
     d="m 253.017,253.507 c -18.582,-45.585 -39.032,-96.11 -57.745,-142.016 2.663,-1.045 5.205,-2.045 8.008,-3.145 16.198,46.831 34.167,98.325 50.277,144.899 -0.178,0.087 -0.355,0.166 -0.54,0.262 z" /><path
     style="stroke-width:1.05843"
     id="path410_1_"
     sodipodi:nodetypes="ccccc"
     fill="#d4e4a3"
     d="m 103.383,311.225 c -0.641,-2.691 -1.217,-5.103 -1.861,-7.806 45.627,-9.385 98.419,-20.413 143.811,-29.75 0.076,0.178 0.105,0.24 0.171,0.407 -44.801,11.746 -97.042,25.33 -142.121,37.149 z" /><path
     style="stroke-width:1.05843"
     id="path412_1_"
     sodipodi:nodetypes="ccccc"
     fill="#dfe8a5"
     d="m 113.51,329.855 c -0.934,-2.497 -1.776,-4.747 -2.759,-7.375 42.421,-14.656 93.324,-32.374 135.494,-46.942 0.101,0.173 0.125,0.232 0.229,0.394 -41.294,16.825 -91.337,36.963 -132.964,53.923 z" /><path
     style="stroke-width:1.05843"
     id="path414_1_"
     sodipodi:nodetypes="ccccc"
     fill="#e2e9a3"
     d="m 245.984,275.066 c -42.266,14.066 -92.421,30.562 -134.96,44.718 -0.784,-2.53 -1.488,-4.805 -2.305,-7.444 43.194,-11.826 94.127,-25.861 137.085,-37.622 0.065,0.123 0.049,0.099 0.18,0.348 z" /><path
     style="stroke-width:1.05843"
     id="path416_1_"
     sodipodi:nodetypes="ccccc"
     fill="#ebeca3"
     d="m 268.442,253.665 c 19.296,-38.578 40.858,-81.292 60.279,-120.117 2.311,1.231 4.413,2.351 6.78,3.61 -21.493,37.69 -45.304,79.223 -66.685,116.716 -0.18,-0.101 -0.195,-0.109 -0.374,-0.209 z" /><path
     style="stroke-width:1.05843"
     id="path418_1_"
     sodipodi:nodetypes="ccccc"
     fill="#f0eea2"
     d="m 271.397,255.699 c 25.535,-32.884 54.883,-70.16 80.606,-103.286 1.912,1.543 3.766,3.039 5.82,4.695 -27.458,31.645 -58.674,67.462 -86.016,98.974 -0.156,-0.157 -0.252,-0.226 -0.41,-0.383 z" /><path
     style="stroke-width:1.05843"
     id="path420_1_"
     sodipodi:nodetypes="ccccc"
     fill="#efeda0"
     d="m 246.958,276.69 c -37.628,18.272 -84.328,40.781 -122.235,59.19 -1.013,-2.224 -1.97,-4.321 -3.099,-6.8 38.775,-16.279 86.513,-36.516 125.133,-52.729 0.058,0.123 0.125,0.21 0.201,0.339 z" /><path
     style="stroke-width:1.05843"
     id="path422_1_"
     sodipodi:nodetypes="ccccc"
     fill="#eeed9f"
     d="m 308.759,130.02 c 2.473,0.927 4.621,1.734 6.972,2.615 -15.851,38.838 -33.148,81.725 -48.887,120.288 -0.19,-0.068 -0.32,-0.127 -0.508,-0.195 13.588,-39.304 28.674,-82.939 42.423,-122.708 z" /><path
     style="stroke-width:1.05843"
     id="path424_1_"
     sodipodi:nodetypes="ccccc"
     fill="#ece994"
     d="m 367.461,164.961 c 1.695,1.774 3.215,3.362 4.962,5.189 -29.75,26.382 -69.487,61.36 -99.048,87.575 -0.146,-0.184 -0.18,-0.232 -0.355,-0.417 28.089,-27.759 66.184,-64.422 94.441,-92.347 z" /><path
     style="stroke-width:1.05843"
     id="path426_1_"
     sodipodi:nodetypes="ccccc"
     fill="#e9e88e"
     d="m 339.432,153.46 c 2.003,1.457 3.797,2.762 5.727,4.163 -23.649,31.152 -50.746,66.735 -74.235,97.677 -0.176,-0.134 -0.295,-0.24 -0.484,-0.373 21.796,-32.228 47.119,-69.123 68.992,-101.467 z" /><path
     style="stroke-width:1.05843"
     id="path428_1_"
     sodipodi:nodetypes="ccccc"
     fill="#ece88f"
     d="m 272.217,256.446 c 25.738,-29.031 56.108,-62.581 81.965,-91.745 1.747,1.649 3.362,3.173 5.156,4.866 -27.438,27.724 -59.455,59.727 -86.726,87.285 -0.166,-0.168 -0.256,-0.249 -0.395,-0.406 z" /><path
     style="stroke-width:1.05843"
     id="path430_1_"
     sodipodi:nodetypes="ccccc"
     fill="#eae68b"
     d="m 265.275,252.376 c 10.455,-38.158 21.29,-78.274 31.821,-116.712 2.316,0.64 4.343,1.201 6.746,1.867 -12.629,37.836 -25.563,77.395 -38.111,114.99 -0.153,-0.046 -0.304,-0.098 -0.456,-0.145 z" /><path
     style="stroke-width:1.05843"
     id="path432_1_"
     sodipodi:nodetypes="ccccc"
     fill="#e9e589"
     d="m 269.369,254.204 c 19.471,-33.291 41.42,-70.142 61.026,-103.665 2.029,1.236 3.893,2.371 5.938,3.617 -21.458,32.474 -45.301,68.098 -66.578,100.303 -0.211,-0.161 -0.217,-0.142 -0.386,-0.255 z" /><path
     style="stroke-width:1.05843"
     id="path434_1_"
     sodipodi:nodetypes="cccccc"
     fill="#e6e483"
     d="m 244.184,268.085 c -37.262,-5.11 -82.055,-11.148 -119.614,-16.299 0.391,-2.322 0.74,-4.375 1.132,-6.708 37.201,7.202 81.547,15.452 118.468,22.602 0.009,0.12 0.006,0.209 0.014,0.405 z" /><path
     style="stroke-width:1.05843"
     id="path436_1_"
     sodipodi:nodetypes="ccccc"
     fill="#e6e17d"
     d="m 244.276,265.971 c -35.657,-9.74 -89.635,-25.63 -125.69,-35.48 0.669,-2.192 1.277,-4.177 1.959,-6.41 35.353,11.78 88.709,29.754 123.784,41.44 -0.024,0.156 -0.025,0.231 -0.053,0.45 z" /><path
     style="stroke-width:1.05843"
     id="path438_1_"
     sodipodi:nodetypes="ccccc"
     fill="#e5e17d"
     d="m 252.059,137.244 c 2.236,36.895 4.76,79.803 6.855,114.536 l 0.322,-0.027 -0.334,-114.51 h -6.843 z" /><path
     style="stroke-width:1.05843"
     id="path440_1_"
     sodipodi:nodetypes="ccccc"
     fill="#e7e27f"
     d="m 245.078,262.491 c -32.944,-16.459 -82.741,-41.186 -115.923,-57.763 1.068,-2.018 2.052,-3.883 3.171,-6.001 32.193,18.374 80.933,44.997 112.94,63.264 -0.063,0.157 -0.114,0.292 -0.188,0.5 z" /><path
     style="stroke-width:1.05843"
     id="path442_1_"
     sodipodi:nodetypes="ccccc"
     fill="#e5e17c"
     d="m 274.392,259.107 c 28.706,-21.8 68.587,-51.366 97.611,-73.409 1.288,1.779 2.504,3.458 3.921,5.415 -30.145,20.35 -71.279,48.332 -101.2,68.531 -0.107,-0.179 -0.206,-0.34 -0.332,-0.537 z" /><path
     style="stroke-width:1.05843"
     id="path444_1_"
     sodipodi:nodetypes="ccccsc"
     fill="#dfdc69"
     d="m 127.733,263.028 v 6.76 l 116.589,0.125 -0.037,-0.327 c -35.58,-2.095 -80.219,-4.377 -116.552,-6.558 z" /><path
     style="stroke-width:1.05843"
     id="path446_1_"
     sodipodi:nodetypes="ccccc"
     fill="#e3e075"
     d="m 277.998,140.144 c 2.344,0.377 4.182,0.672 6.493,1.044 -6.885,35.59 -14.318,75.277 -21.177,110.738 -0.202,-0.03 -0.399,-0.053 -0.604,-0.089 4.893,-35.731 10.359,-75.686 15.288,-111.693 z" /><path
     style="stroke-width:1.05843"
     id="path448_1_"
     fill="#e3e075"
     d="m 260.624,140.615 -0.584,111.134 0.453,-0.011 c 2.075,-34 4.689,-76.044 6.818,-111.124 z m -0.622,119.128 h -0.004 v 0.076 c 0.001,-0.023 0.002,-0.054 0.004,-0.076 z" /><path
     style="stroke-width:1.05843"
     id="path450_1_"
     sodipodi:nodetypes="ccccc"
     fill="#e2df75"
     d="m 246.022,260.335 c -29.257,-19.771 -74.088,-49.986 -103.562,-69.903 1.258,-1.78 2.424,-3.429 3.75,-5.304 28.334,21.508 71.845,53.461 100.022,74.851 -0.08,0.123 -0.095,0.161 -0.21,0.356 z" /><path
     style="stroke-width:1.05843"
     id="path452_1_"
     sodipodi:nodetypes="ccccc"
     fill="#e2df73"
     d="m 261.386,251.722 c 2.523,-35.704 5.302,-73.959 7.859,-110.133 2.101,0.163 4.08,0.316 6.451,0.499 -4.536,35.873 -9.294,74.034 -13.798,109.663 z" /><path
     style="stroke-width:1.05843"
     id="path454_1_"
     sodipodi:nodetypes="ccccc"
     fill="#dedc68"
     d="m 276.403,263.585 c 32.713,-13.346 79.718,-32.129 112.615,-45.55 0.774,2.025 1.466,3.831 2.297,6.006 -33.619,11.622 -81.363,28.595 -114.753,40.137 -0.058,-0.209 -0.085,-0.393 -0.159,-0.593 z" /><path
     style="stroke-width:1.05843"
     id="path456_1_"
     sodipodi:nodetypes="ccccc"
     fill="#e2dd6f"
     d="m 141.814,201.138 c 1.259,-2.009 2.291,-3.657 3.443,-5.492 29.371,19.403 71.25,45.98 100.465,65.28 -0.064,0.146 -0.093,0.22 -0.189,0.417 C 215.33,243.722 172.33,218.94 141.814,201.138 Z" /><path
     style="stroke-width:1.05843"
     id="path458_1_"
     sodipodi:nodetypes="ccccc"
     fill="#e2e073"
     d="M 244.443,270.653 130.968,271.5 v 6.546 c 35.208,-2.121 79.507,-5.031 113.532,-7.105 z" /><path
     style="stroke-width:1.05843"
     id="path460_1_"
     sodipodi:nodetypes="ccccc"
     fill="#dedc68"
     d="m 383.318,210.481 c 0.917,2.026 1.713,3.784 2.658,5.868 -32.169,13.497 -77.737,33.327 -109.703,46.738 -0.071,-0.205 -0.113,-0.365 -0.204,-0.569 31.112,-15.129 75.758,-36.723 107.249,-52.037 z" /><path
     style="stroke-width:1.05843"
     id="path462_1_"
     sodipodi:nodetypes="ccccc"
     fill="#e0de6d"
     d="m 227.83,147.57 c 2.178,-0.553 4.044,-1.028 6.174,-1.568 7.068,34.618 14.941,71.976 21.959,106.346 -0.165,0.052 -0.234,0.065 -0.407,0.117 -8.903,-33.896 -18.765,-70.778 -27.726,-104.895 z" /><path
     style="stroke-width:1.05843"
     id="path464_1_"
     sodipodi:nodetypes="ccccc"
     fill="#e6e385"
     d="m 254.194,252.961 c -11.134,-33.319 -23.012,-69.03 -34.261,-102.693 2.062,-0.624 3.961,-1.201 6.072,-1.84 9.337,34.127 19.379,70.48 28.647,104.356 -0.154,0.053 -0.288,0.11 -0.458,0.177 z" /><path
     style="stroke-width:1.05843"
     id="path466_1_"
     sodipodi:nodetypes="ccccc"
     fill="#e2dc6c"
     d="m 244.441,264.878 c -32.405,-11.162 -83.133,-29.881 -115.915,-41.173 0.717,-2 1.383,-3.856 2.137,-5.96 32.103,13.075 82.038,33.698 113.868,46.66 -0.044,0.224 -0.052,0.286 -0.09,0.473 z" /><path
     style="stroke-width:1.05843"
     id="path468_1_"
     sodipodi:nodetypes="ccccc"
     fill="#dfdd6b"
     d="m 285.435,146.731 c 2.139,0.482 3.951,0.891 6.166,1.39 -8.894,33.893 -18.242,70.299 -27.098,104.047 -0.172,-0.039 -0.346,-0.078 -0.519,-0.117 6.966,-34.113 14.421,-70.887 21.451,-105.32 z" /><path
     style="stroke-width:1.05843"
     id="path470_1_"
     sodipodi:nodetypes="ccccc"
     fill="#dfdc69"
     d="m 244.227,269.037 c -34.398,-2.432 -74.806,-5.117 -109.502,-7.567 0.255,-2.244 0.47,-4.146 0.706,-6.235 34.408,4.356 74.576,9.101 108.77,13.43 0.015,0.216 0.013,0.186 0.026,0.372 z" /><path
     style="stroke-width:1.05843"
     id="path472_1_"
     sodipodi:nodetypes="ccccc"
     fill="#e1dc68"
     d="m 257.649,251.961 c -4.332,-34.218 -8.896,-71.157 -13.271,-105.699 1.986,-0.234 3.886,-0.458 6.224,-0.733 2.452,34.7 5.107,71.87 7.543,106.352 0.001,0 -0.312,0.044 -0.496,0.08 z" /><path
     style="stroke-width:1.05843"
     id="path474_1_"
     sodipodi:nodetypes="ccccc"
     fill="#dfdd6b"
     d="m 246.527,259.457 c -26.578,-20.575 -64.763,-49.834 -91.549,-70.57 1.364,-1.673 2.574,-3.155 3.982,-4.88 25.589,22.188 62.409,53.059 87.809,75.084 -0.128,0.187 -0.108,0.16 -0.242,0.366 z" /><path
     style="stroke-width:1.05843"
     id="path476_1_"
     sodipodi:nodetypes="ccccc"
     fill="#e1dc6a"
     d="m 363.084,340.75 c -1.285,1.817 -2.358,3.333 -3.638,5.144 -27.313,-20.766 -60.482,-45.782 -87.659,-66.445 0.134,-0.132 0.155,-0.156 0.262,-0.25 28.257,19.071 62.545,42.322 91.035,61.551 z" /><path
     style="stroke-width:1.05843"
     id="path478_1_"
     sodipodi:nodetypes="ccccc"
     fill="#dedc68"
     d="m 374.545,205.781 c 1.045,1.92 1.888,3.469 2.95,5.421 -29.853,14.913 -71.89,35.89 -101.629,50.745 -0.096,-0.22 -0.16,-0.376 -0.253,-0.598 28.807,-16.399 69.819,-38.992 98.932,-55.568 z" /><path
     style="stroke-width:1.05843"
     id="path480_1_"
     sodipodi:nodetypes="ccccc"
     fill="#e0db69"
     d="m 236.368,148.063 c 2.137,-0.368 3.952,-0.681 6.155,-1.06 4.61,33.692 9.879,71.616 14.459,105.085 -0.122,0.035 -0.078,0.027 -0.279,0.083 -6.412,-33.076 -13.837,-70.586 -20.335,-104.108 z" /><path
     style="stroke-width:1.05843"
     id="path482_1_"
     sodipodi:nodetypes="ccccc"
     fill="#dedc68"
     d="m 275.088,260.287 c 28.104,-18.575 67.699,-44.01 95.998,-62.714 1.114,1.826 2.114,3.468 3.252,5.335 -29.298,17.086 -69.911,40.911 -98.994,57.869 -0.086,-0.167 -0.157,-0.328 -0.256,-0.49 z" /><path
     style="stroke-width:1.05843"
     id="path486_1_"
     sodipodi:nodetypes="ccccc"
     fill="#ddda63"
     d="m 245.1,273.068 c -32.465,6.295 -73.272,14.254 -105.971,20.595 -0.39,-2.072 -0.713,-3.784 -1.136,-6.036 32.982,-4.528 74.107,-10.571 106.938,-15.078 0.073,0.233 0.107,0.311 0.169,0.519 z" /><path
     style="stroke-width:1.05843"
     id="path488_1_"
     sodipodi:nodetypes="ccccc"
     fill="#dedb66"
     d="m 244.184,267.142 c -32.833,-6.71 -71.768,-14.672 -104.887,-21.442 0.46,-1.974 0.871,-3.747 1.383,-5.943 32.626,8.575 71.077,18.486 103.525,27.012 -0.01,0.142 -0.011,0.203 -0.021,0.373 z" /><path
     style="stroke-width:1.05843"
     id="path490_1_"
     sodipodi:nodetypes="ccccc"
     fill="#dedc68"
     d="m 375.626,232.325 c 0.597,1.949 1.138,3.708 1.788,5.831 -32.057,8.763 -68.745,18.37 -100.644,27.09 -0.03,-0.212 -0.061,-0.328 -0.1,-0.529 31.327,-10.464 67.382,-21.847 98.956,-32.392 z" /><path
     style="stroke-width:1.05843"
     id="path492_1_"
     sodipodi:nodetypes="ccccc"
     fill="#ddda61"
     d="m 244.734,271.88 c -33.009,4.182 -72.537,9.485 -105.86,13.706 -0.173,-2.077 -0.329,-3.965 -0.504,-6.076 33.486,-2.36 73.08,-5.613 106.272,-7.951 0.042,0.156 0.056,0.197 0.092,0.321 z" /><path
     style="stroke-width:1.05843"
     id="path494_1_"
     sodipodi:nodetypes="ccccc"
     fill="#deda65"
     d="m 266.781,282.581 c 16.31,28.525 37.024,65.772 53.463,94.524 -1.87,1.005 -3.564,1.915 -5.415,2.909 -14.769,-29.56 -33.787,-67.898 -48.468,-97.28 0.198,-0.065 0.262,-0.085 0.42,-0.153 z" /><path
     style="stroke-width:1.05843"
     id="path496_1_"
     sodipodi:nodetypes="ccccc"
     fill="#ddd961"
     d="m 264.145,283.396 c 10.568,31.63 23.126,70.579 33.767,102.424 -2.013,0.596 -3.758,1.113 -5.798,1.716 -8.876,-32.44 -19.59,-71.938 -28.379,-104.055 0.205,-0.044 0.252,-0.068 0.41,-0.085 z" /><path
     style="stroke-width:1.05843"
     id="path498_1_"
     sodipodi:nodetypes="ccccc"
     fill="#dcd95e"
     d="m 244.686,263.778 c -29.518,-12.369 -71.667,-30.295 -101.433,-42.769 0.88,-1.912 1.638,-3.558 2.533,-5.501 28.994,14.103 70.278,33.705 99.055,47.702 -0.074,0.249 -0.101,0.341 -0.155,0.568 z" /><path
     style="stroke-width:1.05843"
     id="path500_1_"
     sodipodi:nodetypes="ccccc"
     fill="#ded960"
     d="m 271.363,279.795 c 25.103,19.462 57.899,45.088 83.222,64.721 -1.254,1.546 -2.407,2.968 -3.762,4.637 -24.14,-20.937 -55.766,-48.248 -79.785,-69.082 0.17,-0.152 0.193,-0.143 0.325,-0.276 z" /><path
     style="stroke-width:1.05843"
     id="path502_1_"
     sodipodi:nodetypes="ccccc"
     fill="#dcd85d"
     d="m 289.793,386.074 c -1.989,0.47 -3.764,0.892 -5.816,1.377 -6.538,-32.019 -14.691,-72.08 -21.169,-103.82 0.178,-0.029 0.23,-0.035 0.388,-0.057 8.238,31.328 18.288,70.912 26.597,102.5 z" /><path
     style="stroke-width:1.05843"
     id="path504_1_"
     sodipodi:nodetypes="ccccc"
     fill="#dcd85d"
     d="m 270.679,280.378 c 23.463,20.772 54.729,48.794 78.395,69.744 -1.373,1.469 -2.615,2.796 -4.057,4.34 -22.459,-22.203 -52.451,-51.759 -74.744,-73.799 0.245,-0.182 0.243,-0.176 0.406,-0.285 z" /><path
     style="stroke-width:1.05843"
     id="path506_1_"
     sodipodi:nodetypes="ccccc"
     fill="#dcd759"
     d="m 267.655,282.189 c 17.402,26.285 39.453,60.549 57.069,87.159 -1.599,1.044 -3.123,2.04 -4.977,3.25 -16.02,-27.43 -36.447,-62.908 -52.418,-90.252 0.109,-0.052 0.221,-0.09 0.326,-0.157 z" /><path
     style="stroke-width:1.05843"
     id="path508_1_"
     sodipodi:nodetypes="ccccc"
     fill="#dcd85b"
     d="m 311.48,377.531 c -1.845,0.811 -3.507,1.544 -5.42,2.383 C 293.794,350.71 277.673,312 265.507,283.031 c 0.16,-0.043 0.174,-0.041 0.379,-0.132 13.759,28.256 31.706,66.108 45.594,94.632 z" /><path
     style="stroke-width:1.05843"
     id="path510_1_"
     sodipodi:nodetypes="ccccc"
     fill="#d9d758"
     d="m 269.133,281.42 c 20.247,23.295 47.048,54.617 67.45,78.092 -1.499,1.261 -2.901,2.441 -4.531,3.813 -19.045,-24.582 -44.38,-57.264 -63.3,-81.685 0.213,-0.138 0.191,-0.107 0.381,-0.22 z" /><path
     style="stroke-width:1.05843"
     id="path512_1_"
     sodipodi:nodetypes="ccccc"
     fill="#dbd75a"
     d="m 330.556,364.333 c -1.6,1.179 -3.012,2.22 -4.718,3.476 -17.332,-25.67 -40.576,-60.199 -57.841,-85.772 0.211,-0.101 0.139,-0.065 0.322,-0.164 18.628,24.52 43.474,57.762 62.237,82.46 z" /><path
     style="stroke-width:1.05843"
     id="path514_1_"
     sodipodi:nodetypes="ccccc"
     fill="#dad453"
     d="m 303.041,377.374 c -1.853,0.674 -3.472,1.264 -5.378,1.958 -9.993,-28.947 -23.158,-67.286 -33.084,-96.035 0.214,-0.06 0.291,-0.076 0.401,-0.116 11.505,28.156 26.454,65.788 38.061,94.193 z" /><path
     style="stroke-width:1.05843"
     id="path516_1_"
     sodipodi:nodetypes="ccccc"
     fill="#d8d450"
     d="m 272.73,278.487 c 26.248,15.309 59.46,34.763 85.901,50.185 -1.018,1.677 -1.918,3.158 -2.972,4.893 -25.571,-16.897 -57.94,-37.908 -83.298,-54.666 0.146,-0.169 0.246,-0.25 0.369,-0.412 z" /><path
     style="stroke-width:1.05843"
     id="path518_1_"
     sodipodi:nodetypes="ccccc"
     fill="#d7d34f"
     d="m 160.92,326.66 c -0.936,-1.721 -1.734,-3.189 -2.713,-4.991 26.586,-13.272 62.598,-31.306 89.083,-44.527 0.14,0.188 0.133,0.183 0.194,0.263 -25.619,14.635 -60.634,34.443 -86.564,49.255 z" /><path
     style="stroke-width:1.05843"
     id="path520_1_"
     sodipodi:nodetypes="ccccc"
     fill="#d8d450"
     d="m 173.584,344.944 c -1.309,-1.598 -2.355,-2.876 -3.574,-4.367 23.617,-18.278 55.612,-43.247 79.072,-61.405 0.172,0.178 0.168,0.171 0.33,0.317 -22.379,19.396 -53.181,45.829 -75.828,65.455 z" /><path
     style="stroke-width:1.05843"
     id="path522_1_"
     sodipodi:nodetypes="ccccc"
     fill="#d7d14b"
     d="m 166.731,331.726 c -1.009,-1.638 -1.877,-3.045 -2.922,-4.739 25.44,-14.832 58.778,-34.321 84.084,-49.074 0.114,0.13 0.136,0.158 0.243,0.283 -24.367,16.106 -56.685,37.19 -81.405,53.53 z" /><path
     style="stroke-width:1.05843"
     id="path524_1_"
     sodipodi:nodetypes="ccccc"
     fill="#d7d14a"
     d="m 248.727,278.829 c -23.46,17.838 -53.795,40.62 -77.503,58.646 -1.083,-1.472 -2.055,-2.792 -3.273,-4.447 24.625,-16.643 56.03,-37.961 80.502,-54.503 0.118,0.148 0.15,0.178 0.274,0.304 z" /><path
     style="stroke-width:1.05843"
     id="path526_1_"
     sodipodi:nodetypes="ccccc"
     fill="#ddd96c"
     d="m 180.561,348.581 c -1.323,-1.413 -2.46,-2.625 -3.8,-4.052 21.523,-19.032 51.646,-45.793 73.038,-64.708 0.096,0.094 0.194,0.168 0.354,0.309 -20.257,20.051 -49.096,48.162 -69.592,68.451 z" /><path
     style="stroke-width:1.05843"
     id="path528_1_"
     sodipodi:nodetypes="ccccc"
     fill="#d1d03d"
     d="m 273.736,258.173 c 20.406,-17.728 57.466,-48.531 78.065,-66.428 1.158,1.372 2.163,2.563 3.38,4.004 -21.513,16.68 -59.753,46.24 -81.146,62.828 -0.134,-0.18 -0.168,-0.232 -0.299,-0.404 z" /><path
     style="stroke-width:1.05843"
     id="path530_1_"
     sodipodi:nodetypes="ccccc"
     fill="#d4cb3b"
     d="m 274.722,275.832 c 25.302,8.724 57.908,20.264 83.419,29.06 -0.626,1.68 -1.14,3.054 -1.782,4.772 -24.95,-10.181 -57.128,-23.259 -81.918,-33.376 0.121,-0.199 0.178,-0.287 0.281,-0.456 z" /><path
     style="stroke-width:1.05843"
     id="path532_1_"
     sodipodi:nodetypes="ccccc"
     fill="#d5c93b"
     d="m 180.321,191.509 c -1.315,1.457 -3.115,3.367 -4.235,4.608 18.166,16.046 57.453,50.48 71.042,62.437 l 0.197,-0.266 c -13.237,-13.239 -50.472,-49.732 -67.004,-66.779 z" /><path
     style="stroke-width:1.05843"
     id="path534_1_"
     sodipodi:nodetypes="ccccc"
     fill="#d6c73b"
     d="m 276.736,270.406 -0.061,0.354 c 26.337,1.702 58.986,4.182 84.784,5.772 v -5.139 z" /><path
     style="stroke-width:1.05843"
     id="path536_1_"
     sodipodi:nodetypes="ccccc"
     fill="#d8bf39"
     d="m 276.95,268.461 c 24.835,-3.158 53.952,-6.531 79.163,-9.736 0.231,1.572 0.451,3.062 0.71,4.822 -25.367,1.754 -54.837,3.704 -79.902,5.437 0.013,-0.196 0.013,-0.342 0.029,-0.523 z" /><path
     style="stroke-width:1.05843"
     id="path538_1_"
     sodipodi:nodetypes="ccccc"
     fill="#dbb936"
     d="m 354.9,265.132 c -24.232,1.492 -54.249,2.985 -78.037,4.409 l -0.037,0.295 78.074,-0.017 z" /><path
     style="stroke-width:1.05843"
     id="path540_1_"
     sodipodi:nodetypes="ccccc"
     fill="#dabe38"
     d="m 275.292,274.799 c 23.852,6.495 54.037,15.111 78.199,21.69 -0.486,1.557 -0.916,2.936 -1.441,4.619 -23.669,-7.901 -53.542,-18.02 -76.995,-25.848 0.088,-0.188 0.135,-0.27 0.237,-0.461 z" /><path
     style="stroke-width:1.05843"
     id="path542_1_"
     sodipodi:nodetypes="ccccc"
     fill="#dcbc39"
     d="m 275.787,273.707 c 23.942,4.908 53.327,11.387 77.554,16.351 -0.399,1.59 -0.746,2.968 -1.151,4.57 -23.876,-6.298 -52.977,-14.22 -76.605,-20.454 0.088,-0.192 0.122,-0.283 0.202,-0.467 z" /><path
     style="stroke-width:1.05843"
     id="path544_1_"
     sodipodi:nodetypes="ccccc"
     fill="#ddbb37"
     d="m 351.159,246.888 c 0.406,1.754 0.694,3.006 1.058,4.584 -23.758,4.849 -51.687,10.039 -75.311,14.862 -0.016,-0.176 -0.02,-0.266 -0.053,-0.456 23.255,-6.139 50.733,-12.769 74.306,-18.99 z" /><path
     style="stroke-width:1.05843"
     id="path546_1_"
     sodipodi:nodetypes="ccccc"
     fill="#dcb936"
     d="m 276.188,272.616 c 24.207,3.285 52.186,7.642 76.649,10.962 -0.285,1.58 -0.525,2.919 -0.83,4.606 -24.174,-4.695 -52.01,-10.422 -75.986,-15.081 0.055,-0.166 0.11,-0.339 0.167,-0.487 z" /><path
     style="stroke-width:1.05843"
     id="path548_1_"
     sodipodi:nodetypes="ccccc"
     fill="#dbba37"
     d="m 346.752,307.458 c -0.715,1.511 -1.269,2.678 -1.972,4.162 -21.185,-10.293 -49.929,-24.22 -70.957,-34.437 0.14,-0.196 0.19,-0.248 0.32,-0.44 21.539,9.033 50.766,21.554 72.609,30.715 z" /><path
     style="stroke-width:1.05843"
     id="path550_1_"
     sodipodi:nodetypes="ccccc"
     fill="#dcb936"
     d="m 353.366,277.548 c -0.219,1.69 -0.382,2.965 -0.589,4.564 -23.93,-3.046 -52.579,-7.157 -76.381,-10.187 0.056,-0.207 0.089,-0.322 0.132,-0.492 23.892,1.683 52.54,4.402 76.838,6.115 z" /><path
     style="stroke-width:1.05843"
     id="path552_1_"
     sodipodi:nodetypes="ccccc"
     fill="#ddbb37"
     d="m 350.23,253.34 c 0.288,1.667 0.507,2.94 0.794,4.604 -23.737,3.211 -50.406,6.571 -74.055,9.77 -0.004,-0.152 -0.003,-0.295 -0.006,-0.446 23.326,-4.559 49.598,-9.302 73.267,-13.928 z" /><path
     style="stroke-width:1.05843"
     id="path554_1_"
     sodipodi:nodetypes="ccccc"
     fill="#deb336"
     d="m 340.33,311.081 c -0.694,1.354 -1.282,2.499 -2.057,4.008 -19.009,-10.867 -46.232,-26.298 -65.103,-37.083 0.149,-0.181 0.199,-0.232 0.338,-0.425 19.436,9.664 47.219,23.752 66.822,33.5 z" /><path
     style="stroke-width:1.05843"
     id="path556_1_"
     sodipodi:nodetypes="ccccc"
     fill="#e5a631"
     d="m 275.873,359.631 c -1.571,0.263 -2.658,0.444 -4.1,0.683 -2.861,-21.093 -6.992,-55.689 -9.83,-76.59 0.176,-0.019 0.203,-0.017 0.313,-0.031 4.035,20.671 9.53,54.987 13.617,75.938 z" /><path
     style="stroke-width:1.05843"
     id="path558_1_"
     sodipodi:nodetypes="ccccc"
     fill="#e5a631"
     d="m 269.822,359.006 c -1.395,0.199 -2.558,0.363 -4.095,0.583 -1.427,-20.596 -3.202,-55.457 -4.613,-75.818 0.143,-0.007 0.149,-0.001 0.307,-0.013 2.586,20.192 5.788,54.84 8.401,75.248 z" /><path
     style="stroke-width:1.05843"
     id="path560_1_"
     sodipodi:nodetypes="ccccc"
     fill="#e3a631"
     d="m 260.363,283.778 -0.107,74.965 c 1.491,-0.149 2.582,-0.259 3.881,-0.389 -1.209,-19.382 -2.284,-54.491 -3.476,-74.577 z" /><path
     style="stroke-width:1.05843"
     id="path562_1_"
     sodipodi:nodetypes="ccccc"
     fill="#e69e30"
     d="m 259.557,283.745 c -1.321,20.724 -3.977,55.118 -5.151,74.023 1.365,0.145 2.369,0.253 3.89,0.415 l 1.565,-74.418 c -0.088,-0.005 -0.158,-0.012 -0.304,-0.02 z" /><path
     style="stroke-width:1.05843"
     id="path564_1_"
     sodipodi:nodetypes="ccccc"
     fill="#ea9c30"
     d="m 258.87,283.694 c -1.316,19.081 -4.787,54.286 -6.119,73.616 -1.439,-0.214 -2.516,-0.376 -3.905,-0.584 2.445,-19.091 7.246,-54.137 9.672,-73.085 0.191,0.026 0.16,0.027 0.352,0.053 z" /><path
     style="stroke-width:1.05843"
     id="path566_1_"
     sodipodi:nodetypes="ccccc"
     fill="#ea9c30"
     d="m 247.121,356.865 c -1.454,-0.276 -2.526,-0.481 -3.846,-0.731 3.766,-19.266 10.452,-53.586 14.182,-72.658 0.157,0.023 0.173,0.036 0.3,0.055 -2.599,19.222 -7.984,53.71 -10.636,73.334 z" /><path
     style="stroke-width:1.05843"
     id="path568_1_"
     sodipodi:nodetypes="ccccc"
     fill="#ea9c30"
     d="m 256.883,283.361 c -3.734,18.447 -11.411,53.676 -15.204,72.412 -1.255,-0.268 -2.307,-0.491 -3.819,-0.812 4.867,-18.415 13.87,-53.418 18.697,-71.68 0.186,0.042 0.139,0.04 0.326,0.08 z" /><path
     style="stroke-width:1.05843"
     id="path570_1_"
     sodipodi:nodetypes="ccccc"
     fill="#ea9c30"
     d="m 238.03,349 c -1.243,-0.386 -2.201,-0.683 -3.473,-1.076 5.606,-16.681 15.644,-48.363 21.19,-64.869 0.175,0.053 0.146,0.055 0.321,0.107 -4.566,16.808 -13.421,48.844 -18.038,65.838 z" /><path
     style="stroke-width:1.05843"
     id="path572_1_"
     sodipodi:nodetypes="ccccc"
     fill="#f67927"
     d="m 247.81,257.661 c -9.836,-9.543 -38.026,-38.932 -48.075,-48.681 1.335,-1.265 1.587,-1.208 2.347,-1.926 9.227,10.489 36.88,40.018 45.968,50.35 -0.094,0.087 -0.128,0.125 -0.24,0.257 z" /><path
     style="stroke-width:1.05843"
     id="path574_1_"
     sodipodi:nodetypes="ccccc"
     fill="#f97825"
     d="m 217.861,202.169 c 6.072,10.49 26.84,42.52 32.793,52.804 -0.19,0.137 -0.182,0.135 -0.344,0.258 -6.566,-9.857 -28.185,-41.361 -34.906,-51.45 0.804,-0.529 1.527,-1.002 2.457,-1.612 z" /><path
     style="stroke-width:1.05843"
     id="path576_1_"
     sodipodi:nodetypes="cccccc"
     fill="#ec7326"
     d="m 243.771,249.339 c -5.72,-7.592 -23.965,-29.558 -29.779,-37.275 0.726,-0.534 2.071,-1.344 2.856,-1.921 12.361,17.641 21.539,29.611 32.85,45.599 -0.114,0.088 -0.133,0.112 -0.243,0.197 -1.145,-1.375 -4.594,-5.216 -5.684,-6.6 z" /><path
     style="stroke-width:1.05843"
     id="path578_1_"
     sodipodi:nodetypes="ccccc"
     fill="#e27127"
     d="m 248.844,256.531 c -0.132,0.127 -0.138,0.145 -0.275,0.284 -7.229,-8.301 -33.658,-37.447 -41.311,-46.017 0.711,-0.616 1.246,-1.079 1.987,-1.721 7.596,10.01 33.053,39.177 39.599,47.454 z" /><path
     style="stroke-width:1.05843"
     id="path580_1_"
     sodipodi:nodetypes="cccccc"
     fill="#e26f24"
     d="m 251.194,254.581 c -5.271,-9.137 -11.222,-19.15 -16.553,-28.252 -0.318,-0.542 -12.789,-22.403 -12.978,-22.831 0.89,-0.521 1.356,-0.793 2.27,-1.291 4.894,9.883 22.764,42.197 27.67,52.104 -0.115,0.085 -0.269,0.177 -0.409,0.27 z" /><path
     style="stroke-width:1.05843"
     id="path582_1_"
     sodipodi:nodetypes="ccccc"
     fill="#e99d31"
     d="m 255.005,282.825 c 0.135,0.04 0.172,0.062 0.278,0.091 -3.439,10.11 -13.386,37.904 -16.875,48.155 -0.887,-0.386 -1.539,-0.669 -2.285,-0.995 3.578,-9.083 15.17,-38.722 18.882,-47.251 z" /><path
     style="stroke-width:1.05843"
     id="path584_1_"
     sodipodi:nodetypes="ccccc"
     fill="#ec922b"
     d="m 238.494,320.74 c -0.832,-0.397 -1.083,-0.448 -1.637,-0.81 3.619,-7.241 13.925,-30.531 17.237,-37.45 0.168,0.068 0.227,0.085 0.323,0.129 -1.969,4.6 -13.827,33.108 -15.923,38.131 z" /><path
     style="stroke-width:1.05843"
     id="path1443_1_"
     sodipodi:nodetypes="ccccc"
     fill="#dfdb66"
     d="m 346.831,358.97 c -1.478,1.603 -2.729,2.961 -4.245,4.607 -22.068,-24.927 -51.232,-57.723 -73.072,-82.392 0.207,-0.136 0.239,-0.157 0.349,-0.244 23.121,23.334 53.717,54.563 76.968,78.029 z" /><path
     style="stroke-width:1.05843"
     id="path136_1_"
     sodipodi:nodetypes="ccccc"
     fill="#442718"
     d="m 250.371,280.288 -0.657,0.66 0.519,0.434 0.595,-0.755 z" /><path
     style="stroke-width:1.05843"
     id="path584-3_1_"
     sodipodi:nodetypes="ccccc"
     fill="#c3652b"
     d="m 253.283,282.105 c -2.483,4.051 -13.11,25.923 -14.915,28.931 0.317,0.209 0.62,0.379 1.267,0.724 0.976,-2.068 11.835,-25.158 13.976,-29.501 -0.169,-0.086 -0.206,-0.093 -0.328,-0.154 z" /><path
     style="stroke-width:1.05843"
     id="path584-3-6_1_"
     sodipodi:nodetypes="ccccc"
     fill="#885234"
     d="m 252.493,281.696 c -1.591,2.694 -9.666,17.071 -10.969,19.695 0.217,0.168 0.851,0.527 0.851,0.527 1.612,-2.636 9.086,-17.4 10.438,-20.043 -0.115,-0.06 -0.235,-0.129 -0.32,-0.179 z" /><path
     style="stroke-width:1.05843"
     id="path136-4_1_"
     sodipodi:nodetypes="ccccc"
     fill="#442718"
     d="m 251.618,281.173 -5.84,9.008 1.128,0.736 5.129,-9.493 z" /><path
     style="stroke-width:1.05843"
     id="path136-6_1_"
     sodipodi:nodetypes="ccccc"
     fill="#442718"
     d="m 250.99,280.76 -4.959,6.15 0.946,0.733 4.443,-6.59 z" /></g>
</g>
<sodipodi:namedview
   inkscape:document-rotation="0"
   inkscape:current-layer="For_Vector_xA0_Image_1_"
   inkscape:window-maximized="1"
   inkscape:window-y="-8"
   inkscape:window-x="-8"
   inkscape:window-height="976"
   inkscape:window-width="1920"
   inkscape:pageshadow="2"
   inkscape:pageopacity="0"
   id="namedview591"
   inkscape:cy="274.09069"
   inkscape:zoom="1.4142136"
   showgrid="false"
   inkscape:cx="393.52493"
   guidetolerance="10"
   gridtolerance="10"
   objecttolerance="10"
   bordercolor="#666666"
   pagecolor="#ffffff"
   borderopacity="1"
   units="in">
	</sodipodi:namedview>
<path
   d="m 199.73398,280.71298 h 242.85347 v 46.98211 H 199.73398 Z"
   style="fill:#ffffff;stroke-width:0.999997"
   id="rect279" />
<path
   d="m 205.1938,259.12737 h 45.12003 v 94.48055 H 205.1938 Z"
   style="fill:#ffffff;stroke-width:0.999997"
   id="rect281" />
<path
   d="m 98.139297,287.33214 h 19.343423 v 31.96721 H 98.139297 Z"
   style="fill:#ffffff;stroke-width:0.999997"
   id="rect283" />
<path
   d="m 310.10943,317.20112 h 11.379 v 19.53584 h -11.379 z"
   style="fill:#ffffff;stroke-width:0.999997"
   id="rect285" />
<g
   style="stroke-width:1.0288"
   transform="matrix(0.97531517,0,0,0.96870345,7.1092306,8.991658)"
   id="g345">
	<g
   style="stroke-width:1.0288"
   id="g317">
		<g
   style="stroke-width:1.0288"
   id="g291">
			<path
   d="m 6.546,263.18799 h 23.080999 v 87.6 H 6.546 Z"
   style="fill:#525252;stroke-width:1.0288"
   id="rect287" />
			<path
   style="stroke-width:1.05843"
   id="path289"
   d="m 24.627,268.188 v 77.6 H 11.546 v -77.6 h 13.081 m 10,-10 h -10 -13.081 -10 v 10 77.6 10 h 10 13.081 10 v -10 -77.6 z"
   fill="#ffffff" />
		</g>
		<g
   style="stroke-width:1.0288"
   id="g297">
			<path
   style="stroke-width:1.05843"
   id="path293"
   d="m 69.412,351.231 c -12.854,0 -25.642,-4.964 -35.083,-13.619 l -2.78,-2.548 10.304,-20.61 4.887,4.479 c 6.726,6.164 15.498,9.993 22.895,9.993 2.863,0 9.521,-0.431 9.521,-4.423 0,-3.505 -4.39,-5.167 -13.709,-7.882 -11.898,-3.465 -28.194,-8.211 -28.194,-27.37 0,-15.921 13.37,-26.618 33.269,-26.618 10.549,0 21.454,3.211 29.918,8.812 l 3.608,2.387 -9.641,20.462 -4.747,-2.873 c -6.708,-4.059 -14.235,-6.483 -20.137,-6.483 -0.782,0 -7.638,0.087 -7.638,3.093 0,3.466 5.101,5.261 13.502,7.805 11.972,3.626 28.367,8.591 28.291,28.021 0,16.367 -13.771,27.374 -34.266,27.374 z"
   fill="#525252" />
			<path
   style="stroke-width:1.05843"
   id="path295"
   d="m 70.521,267.634 c 10.088,0 19.954,3.215 27.159,7.981 l -5.432,11.528 c -8.425,-5.099 -16.851,-7.205 -22.726,-7.205 -7.648,0 -12.638,2.882 -12.638,8.093 0,16.961 41.903,7.872 41.793,35.807 0,13.856 -12.194,22.393 -29.266,22.393 -12.194,0 -23.724,-4.988 -31.705,-12.305 l 5.653,-11.308 c 7.982,7.316 17.959,11.308 26.273,11.308 9.09,0 14.521,-3.437 14.521,-9.423 0,-17.293 -41.903,-7.649 -41.903,-35.252 0.002,-13.303 11.42,-21.617 28.271,-21.617 m 0,-10 c -10.522,0 -19.677,2.709 -26.475,7.836 -7.605,5.736 -11.794,14.182 -11.794,23.782 0,7.574 2.383,14.137 6.956,19.311 l -4.792,9.585 -5.653,11.308 -3.373,6.746 5.56,5.097 c 10.353,9.49 24.372,14.934 38.462,14.934 23.119,0 39.266,-13.32 39.266,-32.393 0.039,-9.842 -3.919,-18.058 -11.459,-23.781 l 4.076,-8.651 5.432,-11.529 3.688,-7.828 -7.217,-4.774 c -9.262,-6.129 -21.173,-9.643 -32.677,-9.643 z"
   fill="#ffffff" />
		</g>
		<g
   style="stroke-width:1.0288"
   id="g303">
			<path
   d="m 132.596,263.188 22.499,45.291 22.402,-45.291 h 23.513 v 87.6 h -22.074 l -0.079,-41.537 -16.425,33.444 h -14.765 l -16.385,-33.361 v 41.454 h -22.304 v -87.6 z"
   style="fill:#525252;stroke-width:1.0288"
   id="polygon299" />
			<path
   style="stroke-width:1.05843"
   id="path301"
   d="m 196.01,268.188 v 77.6 h -12.083 l -0.11,-57.978 -24.499,49.885 h -8.536 L 126.283,287.81 v 57.978 h -12.305 v -77.6 h 15.52 l 25.607,51.549 25.497,-51.549 h 15.408 m 10,-10 h -10 -15.408 -6.21 l -2.753,5.566 -16.553,33.466 -16.632,-33.481 -2.758,-5.551 h -6.198 -15.52 -10 v 10 77.6 10 h 10 12.305 10 v -10 -14.931 l 5.523,11.246 2.746,5.592 h 6.23 8.536 6.229 l 2.747,-5.592 5.604,-11.412 0.029,15.116 0.019,9.98 h 9.981 12.083 10 v -10 -77.6 z"
   fill="#ffffff" />
		</g>
		<g
   style="stroke-width:1.0288"
   id="g309">
			<path
   d="m 211.521,263.18799 h 23.081 v 87.6 h -23.081 z"
   style="fill:#525252;stroke-width:1.0288"
   id="rect305" />
			<path
   style="stroke-width:1.05843"
   id="path307"
   d="m 229.602,268.188 v 77.6 h -13.081 v -77.6 h 13.081 m 10,-10 h -10 -13.081 -10 v 10 77.6 10 h 10 13.081 10 v -10 -77.6 z"
   fill="#ffffff" />
		</g>
		<g
   style="stroke-width:1.0288"
   id="g315">
			<path
   style="stroke-width:1.05843"
   id="path311"
   d="m 296.396,350.788 -14.122,-23.392 c -0.266,10e-4 -14.193,10e-4 -14.193,10e-4 v 23.391 H 245 v -87.6 h 36.482 c 22.705,0 36.261,11.774 36.261,31.495 0,12.125 -4.836,21.543 -13.758,27.095 l 19.464,29.01 z m -14.915,-45.141 c 12.271,0 13.845,-5.682 13.845,-10.631 0,-3.016 0,-10.078 -13.845,-10.078 H 268.08 v 20.708 h 13.401 z"
   fill="#525252" />
			<path
   style="stroke-width:1.05843"
   id="path313"
   d="m 281.481,268.188 c 19.843,0 31.261,9.644 31.261,26.495 0,12.416 -5.765,21.174 -16.074,25.164 l 17.404,25.94 H 299.218 L 285.03,322.286 c -1.109,0.11 -2.328,0.11 -3.548,0.11 H 263.08 v 23.391 h -13.081 v -77.6 h 31.482 m -18.401,42.46 h 18.401 c 11.972,0 18.845,-5.1 18.845,-15.631 0,-10.2 -6.873,-15.078 -18.845,-15.078 H 263.08 v 30.709 m 18.401,-52.459 h -31.482 -10 v 10 77.6 10 h 10 13.081 10 v -10 -13.391 h 6.372 l 11.205,18.56 2.917,4.831 h 5.644 14.854 18.752 l -10.448,-15.571 -11.586,-17.27 c 7.706,-6.638 11.952,-16.46 11.952,-28.264 0,-22.511 -15.81,-36.495 -41.261,-36.495 z m -8.401,31.751 h 8.401 c 5.29,0 7.293,1.235 7.781,1.614 0.291,0.226 1.063,0.825 1.063,3.463 0,3.005 -0.91,3.738 -1.209,3.979 -0.616,0.496 -2.593,1.651 -7.636,1.651 h -8.401 v -10.707 z"
   fill="#ffffff" />
		</g>
	</g>
	<g
   style="stroke-width:1.0288"
   id="g343">
		<g
   style="stroke-width:1.0288"
   id="g323">
			<path
   style="stroke-width:1.05843"
   id="path319"
   d="m 321.818,350.522 v -22.095 l 28.444,-26.28 h -27.457 v -7.271 c 0,-5.238 0.998,-10.087 2.967,-14.414 2.006,-4.405 4.74,-7.986 8.126,-10.646 3.182,-2.5 6.699,-4.44 10.455,-5.768 3.779,-1.336 7.711,-2.014 11.688,-2.014 8.729,0 16.289,2.782 22.472,8.27 6.356,5.64 9.579,13.176 9.579,22.399 0,8.717 -3.935,17.199 -11.694,25.214 -0.737,0.833 -1.702,1.811 -2.92,2.957 h 14.12 v 29.646 h -65.78 z m 33.927,-59.334 c -1.677,0 -2.428,0.523 -2.848,0.917 -0.207,0.195 -0.84,0.789 -0.84,2.771 v 5.596 c 3.158,-2.991 4.588,-4.61 5.234,-5.461 0.769,-1.011 0.857,-1.801 0.857,-2.307 0,-0.735 -0.185,-0.901 -0.319,-1.022 -0.476,-0.429 -1.51,-0.494 -2.084,-0.494 z"
   fill="#848484" />
			<path
   style="stroke-width:1.05843"
   id="path321"
   d="m 356.041,267.036 c 7.503,0 13.888,2.336 19.152,7.009 5.266,4.672 7.898,10.892 7.898,18.66 0,7.438 -3.455,14.71 -10.366,21.818 -0.922,1.053 -2.369,2.468 -4.344,4.245 l -1.185,1.185 -6.516,5.923 h 21.916 v 19.646 h -55.779 v -14.907 l 27.248,-25.175 c 3.555,-3.291 5.957,-5.759 7.207,-7.404 1.251,-1.646 1.876,-3.423 1.876,-5.331 0,-1.975 -0.658,-3.555 -1.975,-4.74 -1.316,-1.186 -3.126,-1.777 -5.43,-1.777 -2.567,0 -4.656,0.757 -6.27,2.271 -1.612,1.514 -2.418,3.653 -2.418,6.417 v 2.271 h -19.252 v -2.271 c 0,-4.542 0.84,-8.656 2.518,-12.342 1.679,-3.686 3.899,-6.614 6.664,-8.786 2.765,-2.172 5.775,-3.834 9.033,-4.986 3.258,-1.152 6.601,-1.726 10.023,-1.726 m 0,-10 c -4.545,0 -9.038,0.773 -13.354,2.299 -4.271,1.51 -8.268,3.714 -11.878,6.55 -4.021,3.159 -7.246,7.366 -9.587,12.504 -2.268,4.983 -3.417,10.529 -3.417,16.487 v 2.271 10 h 10 9.677 l -17.45,16.123 -3.214,2.969 v 4.376 14.907 10 h 10 55.779 10 v -10 -19.646 -10 h -7.865 c 5.553,-7.374 8.359,-15.143 8.359,-23.171 0,-10.564 -3.895,-19.603 -11.262,-26.14 -7.122,-6.323 -15.8,-9.529 -25.788,-9.529 z"
   fill="#ffffff" />
		</g>
		<g
   style="stroke-width:1.0288"
   id="g329">
			<path
   style="stroke-width:1.05843"
   id="path325"
   d="m 425.644,352.003 c -5.999,0 -11.518,-1.307 -16.401,-3.885 -4.868,-2.568 -8.898,-6.096 -11.978,-10.484 -2.937,-4.185 -5.201,-8.965 -6.729,-14.208 -1.509,-5.173 -2.273,-10.692 -2.273,-16.406 0,-5.647 0.765,-11.134 2.273,-16.307 1.528,-5.244 3.793,-10.024 6.729,-14.209 3.073,-4.38 7.094,-7.919 11.95,-10.52 4.893,-2.62 10.42,-3.948 16.429,-3.948 7.93,0 14.959,2.286 20.894,6.794 5.772,4.386 10.085,10.045 12.817,16.821 2.632,6.527 3.967,13.716 3.967,21.369 0,7.653 -1.335,14.843 -3.967,21.368 -2.732,6.776 -7.045,12.437 -12.817,16.821 -5.934,4.508 -12.964,6.794 -20.894,6.794 z m 0,-60.815 c -1.337,0 -3.108,0.375 -4.954,3.298 -1.846,2.923 -2.781,7.14 -2.781,12.533 0,5.401 0.939,9.641 2.792,12.6 1.847,2.951 3.612,3.33 4.943,3.33 1.35,0 3.146,-0.385 5.074,-3.382 1.896,-2.947 2.858,-7.169 2.858,-12.548 0,-5.371 -0.958,-9.57 -2.848,-12.48 -1.926,-2.97 -3.729,-3.351 -5.084,-3.351 z"
   fill="#848484" />
			<path
   style="stroke-width:1.05843"
   id="path327"
   d="m 425.644,267.036 c 6.845,0 12.801,1.925 17.869,5.775 5.067,3.85 8.803,8.753 11.205,14.71 2.402,5.958 3.604,12.457 3.604,19.499 0,7.043 -1.201,13.542 -3.604,19.498 -2.402,5.957 -6.138,10.86 -11.205,14.71 -5.068,3.851 -11.024,5.775 -17.869,5.775 -5.2,0 -9.89,-1.102 -14.068,-3.307 -4.18,-2.205 -7.586,-5.184 -10.218,-8.935 -2.633,-3.752 -4.641,-7.997 -6.022,-12.735 -1.382,-4.739 -2.073,-9.741 -2.073,-15.007 0,-5.199 0.691,-10.168 2.073,-14.907 1.382,-4.74 3.39,-8.985 6.022,-12.737 2.632,-3.751 6.038,-6.746 10.218,-8.983 4.178,-2.238 8.867,-3.356 14.068,-3.356 m 0,60.913 c 3.751,0 6.845,-1.892 9.279,-5.677 2.436,-3.784 3.653,-8.868 3.653,-15.253 0,-6.384 -1.218,-11.451 -3.653,-15.203 -2.435,-3.752 -5.528,-5.628 -9.279,-5.628 -3.752,0 -6.813,1.876 -9.182,5.628 -2.369,3.752 -3.554,8.819 -3.554,15.203 0,6.385 1.185,11.469 3.554,15.253 2.369,3.786 5.43,5.677 9.182,5.677 m 0,-70.913 c -6.841,0 -13.163,1.528 -18.789,4.541 -5.553,2.973 -10.156,7.029 -13.683,12.055 -3.253,4.634 -5.755,9.911 -7.438,15.682 -1.641,5.628 -2.473,11.585 -2.473,17.706 0,6.188 0.832,12.178 2.473,17.806 1.684,5.771 4.186,11.046 7.438,15.681 3.539,5.044 8.161,9.093 13.737,12.035 5.61,2.961 11.914,4.462 18.734,4.462 9.048,0 17.095,-2.629 23.919,-7.813 6.5,-4.938 11.354,-11.308 14.43,-18.933 2.872,-7.122 4.329,-14.94 4.329,-23.238 0,-8.296 -1.457,-16.114 -4.329,-23.239 -3.074,-7.624 -7.93,-13.993 -14.43,-18.932 -6.825,-5.185 -14.872,-7.813 -23.918,-7.813 z m 0.023,60.88 c -0.143,-0.136 -0.396,-0.419 -0.729,-0.949 -1.328,-2.122 -2.03,-5.562 -2.03,-9.947 0,-4.371 0.694,-7.782 2.009,-9.864 0.353,-0.558 0.615,-0.835 0.748,-0.956 0.153,0.126 0.471,0.446 0.869,1.061 1.336,2.059 2.042,5.433 2.042,9.76 0,4.342 -0.713,7.745 -2.063,9.841 -0.376,0.584 -0.681,0.909 -0.846,1.054 z"
   fill="#ffffff" />
		</g>
		<g
   style="stroke-width:1.0288"
   id="g335">
			<path
   style="stroke-width:1.05843"
   id="path331"
   d="m 462.898,350.522 v -22.095 l 28.444,-26.28 h -27.457 v -7.271 c 0,-5.238 0.998,-10.087 2.967,-14.414 2.006,-4.405 4.74,-7.986 8.126,-10.646 3.182,-2.5 6.699,-4.44 10.455,-5.768 3.779,-1.336 7.711,-2.014 11.688,-2.014 8.729,0 16.289,2.782 22.472,8.27 6.356,5.64 9.579,13.176 9.579,22.399 0,8.717 -3.935,17.199 -11.694,25.214 -0.737,0.833 -1.702,1.811 -2.92,2.957 h 14.12 v 29.646 h -65.78 z m 33.927,-59.334 c -1.677,0 -2.428,0.523 -2.848,0.917 -0.207,0.195 -0.84,0.789 -0.84,2.771 v 5.596 c 3.158,-2.991 4.588,-4.61 5.234,-5.461 0.769,-1.011 0.857,-1.801 0.857,-2.307 0,-0.735 -0.185,-0.901 -0.319,-1.022 -0.476,-0.429 -1.51,-0.494 -2.084,-0.494 z"
   fill="#848484" />
			<path
   style="stroke-width:1.05843"
   sodipodi:nodetypes="ccsccccccccccscscsccscsscssscsccccccccccccccscs"
   id="path333"
   d="m 497.121,267.036 c 7.503,0 13.888,2.336 19.152,7.009 5.266,4.672 7.898,10.892 7.898,18.66 0,7.438 -3.455,14.71 -10.366,21.818 -0.922,1.053 -2.369,2.468 -4.344,4.245 l -1.185,1.185 -6.516,5.923 h 21.916 v 19.646 h -55.779 v -14.907 l 27.248,-25.175 c 3.555,-3.291 5.957,-5.759 7.207,-7.404 1.251,-1.646 1.876,-3.423 1.876,-5.331 0,-1.975 -0.658,-3.555 -1.975,-4.74 -1.316,-1.186 -3.126,-1.777 -5.43,-1.777 -2.567,0 -4.656,0.757 -6.27,2.271 -1.612,1.514 -2.418,3.653 -2.418,6.417 v 2.271 h -19.252 v -2.271 c 0,-4.542 0.84,-8.656 2.518,-12.342 1.679,-3.686 3.899,-6.614 6.664,-8.786 2.765,-2.172 5.775,-3.834 9.033,-4.986 3.258,-1.152 6.601,-1.726 10.023,-1.726 m 0,-10 c -4.545,0 -9.038,0.773 -13.354,2.299 -4.271,1.51 -8.268,3.714 -11.878,6.55 -4.021,3.159 -7.246,7.366 -9.587,12.504 -2.268,4.983 -3.417,10.529 -3.417,16.487 v 2.271 10 h 10 9.677 l -17.45,16.123 -3.214,2.969 v 4.376 14.907 10 h 10 55.779 12 c 0.17544,-14.51135 -0.0279,-27.62718 0,-39.646 h -9.865 c 5.553,-7.374 8.359,-15.143 8.359,-23.171 0,-10.564 -3.895,-19.603 -11.262,-26.14 -7.122,-6.323 -15.8,-9.529 -25.788,-9.529 z"
   fill="#ffffff" />
		<path
   d="m 523.43579,304.32108 h 14.4515 v 13.6118 h -14.4515 z"
   style="color:#000000;overflow:visible;fill:#ffffff;fill-opacity:1;fill-rule:evenodd;stroke:none;stroke-width:7.46181;stroke-linecap:round"
   id="rect354" /><path
   id="path1187"
   d="m 465.49723,303.70236 -2.07712,20.81546 22.14128,-19.18027 z"
   style="fill:#ffffff;fill-opacity:1;fill-rule:evenodd;stroke:none;stroke-width:1.0288px;stroke-linecap:butt;stroke-linejoin:miter;stroke-opacity:1" /></g>
		<g
   style="stroke-width:1.0288"
   id="g341">
			<path
   d="m 569.454,350.522 h -29.646 v -52.257 l -10.465,3.653 v -31.141 l 21.044,-7.26 h 19.067 z"
   style="fill:#848484;stroke-width:1.0288"
   id="polygon337" />
			<path
   style="stroke-width:1.05843"
   id="path339"
   d="m 564.454,268.517 v 77.006 h -19.646 v -54.299 l -10.465,3.653 v -20.536 l 16.882,-5.825 h 13.229 m 10,-9.999 h -10 -13.229 -1.677 l -1.585,0.547 -16.882,5.825 -6.738,2.325 v 7.128 20.536 14.083 l 10.465,-3.653 v 40.216 10 h 10 19.646 10 v -10 -77.006 z"
   fill="#ffffff" />
		</g>
	</g>
</g>
<path
   id="path1189"
   d="m 38.746016,297.12039 0.304786,25.54955 9.753152,-15.49925 z"
   style="fill:#ffffff;fill-rule:evenodd;stroke:none;stroke-width:0.999997px;stroke-linecap:butt;stroke-linejoin:miter;stroke-opacity:1" /></svg>
